<?xml version="1.0" standalone="no"?>
<!DOCTYPE svg PUBLIC "-//W3C//DTD SVG 20010904//EN"
 "http://www.w3.org/TR/2001/REC-SVG-20010904/DTD/svg10.dtd">
<svg version="1.0" xmlns="http://www.w3.org/2000/svg"
 width="230.000000pt" height="120.000000pt" viewBox="0 0 230.000000 120.000000"
 preserveAspectRatio="xMidYMid meet">

<g transform="translate(0.000000,120.000000) scale(0.100000,-0.100000)"
fill="#000000" stroke="none">
<path d="M982 1120 c-515 -43 -902 -266 -902 -519 0 -69 16 -113 63 -178 247
-334 1068 -455 1649 -243 208 76 362 197 409 320 89 235 -136 459 -572 570
-176 45 -450 66 -647 50z m493 -54 c338 -61 566 -177 677 -345 50 -75 41 -188
-21 -271 -196 -261 -742 -394 -1291 -315 -333 49 -622 197 -699 360 -30 64
-29 151 4 215 88 175 420 332 780 370 114 12 455 4 550 -14z"/>
<path d="M935 1054 c-313 -43 -557 -133 -686 -252 -192 -177 -126 -368 178
-521 188 -94 434 -142 723 -142 306 0 534 47 748 155 267 134 337 322 181 485
-106 110 -308 202 -555 252 -90 18 -148 22 -334 25 -124 1 -238 0 -255 -2z
m-301 -230 c-19 -53 -34 -98 -34 -100 0 -2 23 -4 50 -4 53 0 56 -3 40 -44 -9
-25 -12 -26 -106 -26 -88 0 -96 2 -89 18 28 71 75 215 75 232 0 17 6 20 49 20
l50 0 -35 -96z m320 19 c3 -42 6 -102 6 -135 l0 -58 -35 0 c-32 0 -35 2 -35
30 0 28 -2 30 -38 30 -31 0 -41 -5 -55 -30 -15 -25 -24 -30 -58 -30 -21 0 -39
3 -39 6 0 3 32 57 70 118 39 62 70 120 70 129 0 14 10 17 54 17 l53 0 7 -77z
m216 5 l13 -73 22 70 21 70 41 3 40 3 -46 -133 -46 -133 -37 -6 -37 -6 -19 81
-18 81 -25 -75 c-24 -74 -24 -75 -61 -78 -21 -2 -38 -2 -38 0 0 9 31 102 54
162 15 38 24 78 20 88 -5 16 1 18 49 18 l54 0 13 -72z m325 60 c16 -7 29 -25
36 -49 10 -32 8 -46 -13 -100 -34 -91 -64 -109 -179 -109 l-89 0 42 113 c22
61 41 122 40 135 0 21 4 22 69 22 37 0 80 -5 94 -12z m282 -120 c-12 -30 -23
-36 -119 -70 -71 -24 -105 -32 -102 -23 6 14 39 30 87 41 45 10 40 22 -7 17
-50 -6 -61 4 -45 41 12 25 15 26 106 26 l93 0 -13 -32z m-938 -212 c12 -11 21
-30 21 -43 0 -26 -36 -103 -48 -103 -26 -1 -32 -17 -17 -53 20 -48 21 -47 -24
-47 -37 0 -39 2 -51 45 -15 54 -30 53 -50 -3 -13 -39 -17 -42 -52 -42 -21 0
-38 2 -38 5 0 2 18 55 40 117 22 62 38 118 36 124 -8 22 8 26 85 22 58 -2 82
-8 98 -22z m250 9 c35 -18 44 -50 31 -109 -16 -72 -40 -112 -80 -135 -61 -34
-145 -23 -170 24 -27 51 16 178 73 214 38 25 106 27 146 6z m143 -80 l3 -95
48 95 48 95 40 0 c21 0 39 -1 39 -3 0 -6 -132 -241 -142 -254 -6 -7 -32 -13
-58 -13 l-47 0 -7 120 c-4 66 -9 127 -12 135 -5 12 3 15 40 15 l45 0 3 -95z
m385 63 c-12 -30 -18 -33 -62 -36 -45 -3 -64 -13 -65 -34 0 -5 20 -8 45 -8 50
0 49 1 33 -35 -10 -22 -18 -25 -58 -25 -39 0 -49 -4 -53 -20 -5 -18 0 -20 48
-20 l53 0 -11 -30 -11 -30 -93 0 c-51 0 -93 1 -93 3 0 2 18 52 40 113 22 60
40 119 40 132 0 21 3 22 100 22 l100 0 -13 -32z m217 13 c19 -16 21 -79 4
-116 -6 -14 -14 -25 -17 -25 -3 0 -14 -7 -24 -14 -16 -13 -16 -17 -4 -55 l15
-41 -39 0 c-38 0 -39 1 -51 45 -7 25 -18 45 -24 45 -7 0 -19 -19 -26 -42 -13
-39 -18 -43 -51 -46 -20 -2 -37 1 -37 6 0 5 18 60 40 121 21 61 36 119 33 128
-5 14 4 15 80 11 49 -2 92 -10 101 -17z m-1250 -34 c-2 -7 -33 -23 -67 -34
l-62 -21 53 -1 c28 -1 52 -3 52 -5 0 -1 -5 -17 -11 -34 l-11 -32 -89 1 c-95 1
-100 4 -78 52 8 18 32 30 107 55 113 36 113 36 106 19z"/>
<path d="M867 801 c-21 -36 -21 -40 0 -37 11 2 18 14 20 34 5 39 2 40 -20 3z"/>
<path d="M1385 798 c-10 -29 -20 -59 -23 -65 -3 -9 6 -13 26 -13 26 0 33 6 51
46 27 56 24 78 -11 82 -23 3 -28 -2 -43 -50z"/>
<path d="M720 521 c0 -5 -3 -16 -6 -25 -5 -12 1 -16 24 -16 27 0 42 14 42 41
0 5 -13 9 -30 9 -16 0 -30 -4 -30 -9z"/>
<path d="M978 513 c-21 -23 -38 -67 -38 -99 0 -22 4 -25 33 -22 26 2 36 10 50
40 10 20 19 49 20 65 2 23 -2 29 -24 31 -15 2 -32 -4 -41 -15z"/>
<path d="M1716 514 c-11 -28 -7 -34 23 -34 26 0 41 14 41 41 0 16 -57 10 -64
-7z"/>
<path d="M335 1020 c-3 -6 1 -7 9 -4 18 7 21 14 7 14 -6 0 -13 -4 -16 -10z"/>
<path d="M2160 325 c-24 -25 -42 -45 -39 -45 3 0 25 20 49 45 24 25 42 45 39
45 -3 0 -25 -20 -49 -45z"/>
<path d="M2089 263 c-13 -16 -12 -17 4 -4 16 13 21 21 13 21 -2 0 -10 -8 -17
-17z"/>
<path d="M1955 180 c-3 -6 1 -7 9 -4 18 7 21 14 7 14 -6 0 -13 -4 -16 -10z"/>
<path d="M1870 140 c-9 -6 -10 -10 -3 -10 6 0 15 5 18 10 8 12 4 12 -15 0z"/>
<path d="M1498 33 c7 -3 16 -2 19 1 4 3 -2 6 -13 5 -11 0 -14 -3 -6 -6z"/>
</g>
</svg>
